<?xml version="1.0" encoding="UTF-8"?>
<svg xmlns="http://www.w3.org/2000/svg" xmlns:xlink="http://www.w3.org/1999/xlink" width="20px" height="20px" viewBox="0 0 20 20" version="1.1">
<defs>
<linearGradient id="linear0" gradientUnits="userSpaceOnUse" x1="10.608" y1="4.776" x2="35.821" y2="40.968" gradientTransform="matrix(0.416667,0,0,0.416667,0,0)">
<stop offset="0" style="stop-color:rgb(5.098039%,38.039216%,66.27451%);stop-opacity:1;"/>
<stop offset="1" style="stop-color:rgb(8.627451%,32.156863%,54.901961%);stop-opacity:1;"/>
</linearGradient>
<filter id="alpha" filterUnits="objectBoundingBox" x="0%" y="0%" width="100%" height="100%">
  <feColorMatrix type="matrix" in="SourceGraphic" values="0 0 0 0 1 0 0 0 0 1 0 0 0 0 1 0 0 0 1 0"/>
</filter>
<mask id="mask0">
  <g filter="url(#alpha)">
<rect x="0" y="0" width="20" height="20" style="fill:rgb(0%,0%,0%);fill-opacity:0.0509804;stroke:none;"/>
  </g>
</mask>
<clipPath id="clip1">
  <rect x="0" y="0" width="20" height="20"/>
</clipPath>
<g id="surface5" clip-path="url(#clip1)">
<path style=" stroke:none;fill-rule:nonzero;fill:rgb(0%,0%,0%);fill-opacity:1;" d="M 10 17.917969 C 5.632812 17.917969 2.082031 14.367188 2.082031 10 C 2.082031 5.636719 5.632812 2.082031 10 2.082031 C 14.367188 2.082031 17.917969 5.636719 17.917969 10 C 17.917969 14.367188 14.367188 17.917969 10 17.917969 Z M 8.65625 16.105469 C 9.097656 16.203125 9.546875 16.25 10 16.25 C 10.558594 16.25 11.117188 16.175781 11.660156 16.027344 L 10.128906 11.828125 Z M 3.921875 8.535156 C 3.808594 9.011719 3.75 9.503906 3.75 10 C 3.75 12.027344 4.691406 13.867188 6.296875 15.039062 Z M 16.148438 8.871094 C 16.058594 9.242188 15.9375 9.628906 15.773438 10.03125 L 14.179688 14.648438 C 15.488281 13.46875 16.25 11.777344 16.25 10 C 16.25 9.621094 16.214844 9.242188 16.148438 8.871094 Z M 8.34375 12.78125 L 9.359375 9.726562 L 8.417969 7.097656 C 8.160156 7.078125 7.964844 7.050781 7.964844 7.050781 C 7.609375 7.03125 7.339844 6.726562 7.351562 6.347656 C 7.363281 5.960938 7.660156 5.671875 8.035156 5.671875 L 8.128906 5.679688 C 8.890625 5.730469 9.457031 5.757812 9.816406 5.757812 C 10.484375 5.757812 11.550781 5.675781 11.5625 5.675781 C 11.980469 5.675781 12.277344 5.941406 12.300781 6.320312 C 12.320312 6.636719 12.109375 7 11.6875 7.050781 C 11.652344 7.054688 11.5625 7.066406 11.4375 7.078125 L 13.304688 12.660156 L 13.59375 11.699219 C 13.921875 10.859375 14.085938 10.179688 14.085938 9.664062 C 14.085938 9.085938 13.816406 8.648438 13.582031 8.261719 C 13.53125 8.179688 13.484375 8.105469 13.445312 8.03125 L 13.363281 7.902344 C 13.039062 7.375 12.734375 6.878906 12.734375 6.261719 C 12.734375 5.707031 13.078125 5.175781 13.59375 4.882812 C 12.550781 4.152344 11.289062 3.75 10 3.75 C 8.257812 3.75 6.621094 4.464844 5.4375 5.730469 C 5.996094 5.707031 6.554688 5.664062 6.5625 5.664062 L 6.617188 5.660156 C 6.984375 5.660156 7.277344 5.9375 7.300781 6.308594 C 7.320312 6.625 7.109375 6.988281 6.683594 7.039062 C 6.65625 7.042969 6.566406 7.054688 6.4375 7.066406 Z M 8.34375 12.78125 "/>
</g>
<mask id="mask1">
  <g filter="url(#alpha)">
<rect x="0" y="0" width="20" height="20" style="fill:rgb(0%,0%,0%);fill-opacity:0.0705882;stroke:none;"/>
  </g>
</mask>
<clipPath id="clip2">
  <rect x="0" y="0" width="20" height="20"/>
</clipPath>
<g id="surface8" clip-path="url(#clip2)">
<path style=" stroke:none;fill-rule:nonzero;fill:rgb(0%,0%,0%);fill-opacity:1;" d="M 10 17.707031 C 5.75 17.707031 2.289062 14.25 2.289062 10 C 2.289062 5.75 5.75 2.292969 10 2.292969 C 14.25 2.292969 17.710938 5.75 17.710938 10 C 17.710938 14.25 14.25 17.707031 10 17.707031 Z M 8.386719 16.253906 C 8.910156 16.390625 9.453125 16.457031 10 16.457031 C 10.65625 16.457031 11.304688 16.359375 11.933594 16.164062 L 10.121094 11.207031 Z M 3.902344 7.871094 C 3.664062 8.554688 3.542969 9.269531 3.542969 10 C 3.542969 12.3125 4.742188 14.398438 6.707031 15.558594 Z M 16.09375 7.855469 C 16.046875 8.523438 15.882812 9.199219 15.582031 9.953125 L 13.746094 15.261719 C 15.433594 14.058594 16.457031 12.09375 16.457031 10 C 16.457031 9.269531 16.332031 8.542969 16.09375 7.855469 Z M 8.34375 13.4375 L 9.582031 9.722656 L 8.566406 6.902344 C 8.257812 6.878906 7.992188 6.84375 7.992188 6.84375 C 7.738281 6.828125 7.550781 6.621094 7.5625 6.351562 C 7.570312 6.082031 7.773438 5.882812 8.035156 5.882812 C 8.085938 5.882812 9.179688 5.964844 9.816406 5.964844 C 10.496094 5.964844 11.566406 5.882812 11.578125 5.882812 C 11.578125 5.882812 11.578125 5.882812 11.582031 5.882812 C 11.878906 5.882812 12.078125 6.074219 12.09375 6.332031 C 12.105469 6.558594 11.960938 6.808594 11.660156 6.847656 C 11.648438 6.847656 11.4375 6.871094 11.15625 6.894531 L 13.316406 13.351562 L 13.796875 11.761719 C 14.128906 10.90625 14.292969 10.207031 14.292969 9.664062 C 14.292969 9.027344 13.996094 8.542969 13.757812 8.152344 C 13.710938 8.074219 13.664062 8 13.625 7.929688 L 13.539062 7.792969 C 13.230469 7.292969 12.941406 6.820312 12.941406 6.261719 C 12.941406 5.667969 13.410156 5.113281 14.007812 4.933594 C 12.871094 4.03125 11.464844 3.542969 10 3.542969 C 8.042969 3.542969 6.191406 4.4375 4.96875 5.953125 C 5.644531 5.941406 6.566406 5.871094 6.578125 5.871094 L 6.617188 5.871094 C 6.875 5.871094 7.078125 6.058594 7.09375 6.320312 C 7.105469 6.546875 6.960938 6.796875 6.660156 6.832031 C 6.648438 6.835938 6.4375 6.859375 6.15625 6.878906 Z M 8.34375 13.4375 "/>
</g>
</defs>
<g id="surface1">
<path style=" stroke:none;fill-rule:nonzero;fill:url(#linear0);" d="M 10 1.667969 C 5.402344 1.667969 1.667969 5.40625 1.667969 10 C 1.667969 14.59375 5.402344 18.332031 10 18.332031 C 14.597656 18.332031 18.332031 14.59375 18.332031 10 C 18.332031 5.40625 14.597656 1.667969 10 1.667969 Z M 10 1.667969 "/>
<use xlink:href="#surface5" mask="url(#mask0)"/>
<use xlink:href="#surface8" mask="url(#mask1)"/>
<path style=" stroke:none;fill-rule:nonzero;fill:rgb(100%,100%,100%);fill-opacity:1;" d="M 10 2.5 C 5.863281 2.5 2.496094 5.863281 2.496094 10 C 2.496094 14.136719 5.863281 17.5 10 17.5 C 14.136719 17.5 17.503906 14.136719 17.503906 10 C 17.503906 5.863281 14.136719 2.5 10 2.5 Z M 3.332031 10 C 3.332031 9.03125 3.539062 8.117188 3.910156 7.285156 L 7.089844 16 C 4.867188 14.917969 3.332031 12.640625 3.332031 10 Z M 10 16.667969 C 9.347656 16.667969 8.714844 16.574219 8.117188 16.394531 L 10.117188 10.582031 L 12.167969 16.195312 C 12.179688 16.230469 12.199219 16.257812 12.214844 16.289062 C 11.519531 16.53125 10.777344 16.667969 10 16.667969 Z M 10.871094 6.703125 C 11.273438 6.683594 11.636719 6.640625 11.636719 6.640625 C 11.996094 6.59375 11.953125 6.066406 11.59375 6.089844 C 11.59375 6.089844 10.515625 6.171875 9.816406 6.171875 C 9.164062 6.171875 8.058594 6.089844 8.058594 6.089844 C 7.699219 6.066406 7.660156 6.617188 8.019531 6.640625 C 8.019531 6.640625 8.359375 6.683594 8.71875 6.703125 L 9.800781 9.722656 L 8.34375 14.097656 L 5.871094 6.691406 C 6.273438 6.671875 6.632812 6.625 6.632812 6.625 C 6.996094 6.582031 6.953125 6.054688 6.59375 6.078125 C 6.59375 6.078125 5.511719 6.160156 4.816406 6.160156 C 4.691406 6.160156 4.65625 6.175781 4.5625 6.144531 C 5.769531 4.445312 7.753906 3.332031 10 3.332031 C 11.738281 3.332031 13.316406 3.992188 14.503906 5.082031 C 14.472656 5.082031 14.445312 5.078125 14.417969 5.078125 C 13.761719 5.078125 13.148438 5.652344 13.148438 6.261719 C 13.148438 6.808594 13.46875 7.273438 13.804688 7.824219 C 14.058594 8.269531 14.5 8.839844 14.5 9.664062 C 14.5 10.238281 14.332031 10.953125 13.992188 11.820312 L 13.328125 14.039062 Z M 13.351562 15.765625 L 15.386719 9.875 C 15.769531 8.921875 15.894531 8.164062 15.894531 7.484375 C 15.894531 7.242188 15.878906 7.011719 15.851562 6.800781 C 16.371094 7.75 16.667969 8.839844 16.667969 10 C 16.667969 12.460938 15.335938 14.609375 13.351562 15.765625 Z M 13.351562 15.765625 "/>
</g>
</svg>
